<svg width="481" height="580" viewBox="0 0 481 580" fill="none" xmlns="http://www.w3.org/2000/svg">
<g clip-path="url(#clip0_7_166)">
<path d="M3.43868 277.406C5.20604 280.36 7.59907 282.891 10.4492 284.819C13.2993 286.748 16.5373 288.027 19.9349 288.568C23.3325 289.108 26.8072 288.896 30.1142 287.947C33.4213 286.998 36.4802 285.335 39.0755 283.075L111.617 324.717L108.914 281.306L40.4412 248.417C36.3585 244.305 30.9105 241.834 25.1296 241.474C19.3486 241.113 13.6365 242.888 9.07542 246.461C4.51438 250.035 1.42135 255.158 0.382467 260.862C-0.65642 266.565 0.431004 272.452 3.43868 277.406Z" fill="#FFB8B8"/>
<path d="M213.454 444.226C191.936 474.371 192.705 524.803 198.709 580H300.448L304.871 569.669L310.769 580H406.611C406.611 580 399.238 439.799 385.968 435.371C372.697 430.944 213.454 444.226 213.454 444.226Z" fill="#2F2E41"/>
<path d="M300.448 129.278C328.95 129.278 352.055 106.152 352.055 77.6251C352.055 49.0979 328.95 25.972 300.448 25.972C271.946 25.972 248.841 49.0979 248.841 77.6251C248.841 106.152 271.946 129.278 300.448 129.278Z" fill="#FFB8B8"/>
<path d="M337.747 142.68L347.839 162.04L417.642 193.185L399.294 370.909L391.571 389.313L395.744 405.296L385.684 417.091C395.782 426.236 397.064 435.809 391.571 445.711L359.427 453.081C359.427 453.081 180.697 468.988 195.76 441.274C212.218 410.993 216.409 321.564 180.076 273.776C149.231 233.204 172.912 180.558 172.912 180.558L246.079 158.673L272.991 142.68L337.747 142.68Z" fill="#3F3D56"/>
<path d="M323.359 1.96139C323.602 1.44782 323.992 1.01853 324.48 0.728636C324.968 0.438746 325.532 0.301494 326.098 0.334514C302.472 -1.08003 277.586 1.67619 257.82 14.7077C253.031 17.8648 248.516 21.6305 243.305 23.9208C243.059 24.0314 242.846 24.2038 242.687 24.4212C242.527 24.6386 242.426 24.8937 242.394 25.1617C242.362 25.4296 242.399 25.7013 242.503 25.9504C242.607 26.1995 242.773 26.4175 242.986 26.5832L243.558 27.0325C243.784 27.2097 243.957 27.4455 244.058 27.7143C244.16 27.983 244.185 28.2744 244.133 28.5568C244.08 28.8391 243.951 29.1016 243.76 29.3157C243.568 29.5297 243.322 29.6872 243.048 29.771C242.761 29.8583 242.506 30.0256 242.312 30.2533C242.118 30.4809 241.992 30.7594 241.951 31.0559C241.909 31.3524 241.954 31.6546 242.078 31.9269C242.202 32.1992 242.402 32.4302 242.653 32.5927L247.039 35.43C247.26 35.5704 247.442 35.764 247.569 35.9932C247.696 36.2224 247.763 36.4797 247.764 36.7416C247.766 37.0035 247.701 37.2616 247.577 37.4921C247.453 37.7227 247.273 37.9183 247.054 38.0611C246.682 38.2908 246.292 38.4888 245.887 38.653C245.636 38.7477 245.412 38.9057 245.239 39.1117C245.066 39.3178 244.949 39.5651 244.899 39.8296C244.849 40.0942 244.869 40.3671 244.955 40.6221C245.041 40.8772 245.191 41.1057 245.391 41.2856C247.29 42.978 248.747 45.1097 249.635 47.4949C251.097 51.2994 251.359 55.4429 251.606 59.5116C253.117 53.6409 259.518 50.1852 265.565 49.834C271.612 49.4829 277.509 51.4798 283.393 52.9152C296.21 56.0327 309.522 56.5452 322.54 54.4225C318.119 63.302 321.848 73.8933 325.601 83.0756L337.747 77.8647C354.429 68.4397 342.809 108.309 336.573 113.782C349.307 118.201 382.636 69.1579 371.914 50.5546C366.337 40.8775 370.296 28.3963 359.33 19.2183C353.956 13.5556 343.226 16.0725 337.747 11.3662C335.591 9.51386 338.878 4.55824 335.914 3.47824C334.93 3.11953 323.522 1.59986 323.359 1.96139Z" fill="#2F2E41"/>
<path d="M235.945 163.673C226.475 205.752 202.187 304.002 177.546 324.549C175.983 326.026 174.11 327.133 172.063 327.789C85.4484 348.909 57.6955 295.037 57.6955 295.037C57.6955 295.037 80.907 283.715 81.4957 261.586L128.306 276.123L169.111 184.212L175.115 178.606L175.149 178.572L235.945 163.673Z" fill="#3F3D56"/>
<path d="M420.621 552.254C423.101 549.868 425.028 546.966 426.267 543.754C427.505 540.541 428.025 537.096 427.789 533.661C427.554 530.225 426.568 526.884 424.903 523.871C423.237 520.858 420.932 518.247 418.149 516.222L442.431 436.127L400.769 448.498L384.098 522.661C381.01 527.565 379.826 533.433 380.771 539.153C381.716 544.873 384.725 550.046 389.227 553.694C393.729 557.342 399.411 559.21 405.197 558.945C410.983 558.679 416.471 556.299 420.621 552.254Z" fill="#FFB8B8"/>
<path d="M398.397 188.704L417.642 193.185C417.642 193.185 497.187 348.091 478.019 377.607C458.851 407.123 435.368 504.843 435.368 504.843C435.368 504.843 400.637 497.932 387.366 480.223L411.667 364.325L386.601 266.922L398.397 188.704Z" fill="#3F3D56"/>
<path d="M33.2863 418.735L33.9773 169.249C33.997 164.199 36.0171 159.364 39.5944 155.803C43.1717 152.242 48.014 150.247 53.0591 150.255L241.307 150.778C246.352 150.798 251.183 152.819 254.741 156.4C258.298 159.98 260.292 164.827 260.283 169.877L259.592 419.363C259.573 424.412 257.553 429.248 253.975 432.809C250.398 436.369 245.556 438.364 240.511 438.356L52.2625 437.834C47.2175 437.814 42.3863 435.792 38.8288 432.212C35.2713 428.631 33.278 423.784 33.2863 418.735Z" fill="#B2B2B2"/>
<path d="M47.9348 343.42L48.3791 183.027C48.3974 178.298 50.2893 173.77 53.6395 170.435C56.9898 167.1 61.5249 165.232 66.2497 165.24L228.033 165.689C232.758 165.707 237.283 167.6 240.615 170.954C243.947 174.307 245.814 178.846 245.806 183.575L245.191 405.584C245.172 410.313 243.28 414.842 239.93 418.177C236.58 421.511 232.044 423.38 227.319 423.372L127.098 423.094C106.052 423.012 85.8973 414.577 71.0565 399.64C56.2157 384.704 47.9004 364.485 47.9348 343.42Z" fill="white"/>
<path d="M209.495 235.693H83.3459C81.3385 235.693 79.4133 234.895 77.9938 233.474C76.5744 232.054 75.7769 230.127 75.7769 228.118C75.7769 226.108 76.5744 224.181 77.9938 222.761C79.4133 221.34 81.3385 220.542 83.3459 220.542H209.495C211.503 220.542 213.428 221.34 214.848 222.761C216.267 224.181 217.064 226.108 217.064 228.118C217.064 230.127 216.267 232.054 214.848 233.474C213.428 234.895 211.503 235.693 209.495 235.693Z" fill="#006BD6"/>
<path d="M111.099 200.761H83.3459C81.3385 200.761 79.4133 199.962 77.9938 198.542C76.5744 197.121 75.7769 195.194 75.7769 193.185C75.7769 191.176 76.5744 189.249 77.9938 187.828C79.4133 186.407 81.3385 185.609 83.3459 185.609H111.099C113.106 185.609 115.031 186.407 116.451 187.828C117.87 189.249 118.668 191.176 118.668 193.185C118.668 195.194 117.87 197.121 116.451 198.542C115.031 199.962 113.106 200.761 111.099 200.761Z" fill="#006BD6"/>
<path d="M209.495 270.626H83.3459C81.3385 270.626 79.4133 269.828 77.9938 268.407C76.5744 266.987 75.7769 265.06 75.7769 263.05C75.7769 261.041 76.5744 259.114 77.9938 257.693C79.4133 256.273 81.3385 255.475 83.3459 255.475H209.495C211.503 255.475 213.428 256.273 214.848 257.693C216.267 259.114 217.064 261.041 217.064 263.05C217.064 265.06 216.267 266.987 214.848 268.407C213.428 269.828 211.503 270.626 209.495 270.626Z" fill="#006BD6"/>
<path d="M209.495 305.559H83.3459C81.3385 305.559 79.4133 304.761 77.9938 303.34C76.5744 301.919 75.7769 299.992 75.7769 297.983C75.7769 295.974 76.5744 294.047 77.9938 292.626C79.4133 291.205 81.3385 290.407 83.3459 290.407H209.495C211.503 290.407 213.428 291.205 214.848 292.626C216.267 294.047 217.064 295.974 217.064 297.983C217.064 299.992 216.267 301.919 214.848 303.34C213.428 304.761 211.503 305.559 209.495 305.559Z" fill="#006BD6"/>
<path d="M199.288 397.605C215.921 397.605 229.405 384.109 229.405 367.461C229.405 350.813 215.921 337.317 199.288 337.317C182.655 337.317 169.171 350.813 169.171 367.461C169.171 384.109 182.655 397.605 199.288 397.605Z" fill="#006BD6"/>
<path d="M195.18 383.15C194.66 383.15 194.147 383.028 193.682 382.796C193.216 382.563 192.812 382.225 192.5 381.808L184.284 370.843C184.019 370.491 183.826 370.09 183.717 369.663C183.607 369.236 183.582 368.792 183.644 368.356C183.707 367.919 183.854 367.5 184.078 367.12C184.302 366.741 184.599 366.41 184.951 366.145C185.303 365.881 185.704 365.689 186.131 365.58C186.557 365.47 187.001 365.446 187.437 365.509C187.873 365.572 188.292 365.72 188.671 365.944C189.049 366.169 189.38 366.467 189.644 366.82L195.019 373.993L208.825 353.265C209.069 352.897 209.382 352.581 209.748 352.335C210.113 352.088 210.524 351.917 210.956 351.829C211.388 351.742 211.834 351.741 212.266 351.827C212.699 351.912 213.11 352.082 213.477 352.326C213.844 352.571 214.158 352.886 214.403 353.253C214.648 353.62 214.819 354.031 214.905 354.464C214.99 354.897 214.99 355.342 214.903 355.775C214.817 356.208 214.646 356.619 214.4 356.985L197.967 381.656C197.67 382.103 197.27 382.471 196.802 382.731C196.333 382.99 195.808 383.134 195.273 383.149C195.242 383.149 195.211 383.15 195.18 383.15Z" fill="white"/>
<path d="M135.067 92.1745C142.963 92.1745 149.364 85.7677 149.364 77.8647C149.364 69.9616 142.963 63.5549 135.067 63.5549C127.171 63.5549 120.77 69.9616 120.77 77.8647C120.77 85.7677 127.171 92.1745 135.067 92.1745Z" fill="#B2B2B2"/>
<path d="M82.9254 503.792C90.8214 503.792 97.2223 497.385 97.2223 489.482C97.2223 481.579 90.8214 475.172 82.9254 475.172C75.0294 475.172 68.6284 481.579 68.6284 489.482C68.6284 497.385 75.0294 503.792 82.9254 503.792Z" fill="#B2B2B2"/>
<path d="M411.755 147.73C419.651 147.73 426.052 141.323 426.052 133.42C426.052 125.517 419.651 119.111 411.755 119.111C403.859 119.111 397.458 125.517 397.458 133.42C397.458 141.323 403.859 147.73 411.755 147.73Z" fill="#B2B2B2"/>
</g>
<defs>
<clipPath id="clip0_7_166">
<rect width="481" height="580" fill="white"/>
</clipPath>
</defs>
</svg>
