<svg width="239" height="272" viewBox="0 0 239 272" fill="none" xmlns="http://www.w3.org/2000/svg">
<g clip-path="url(#clip0_22_44)">
<path d="M1.70864 138.225C2.58681 139.697 3.77586 140.958 5.19204 141.919C6.60822 142.879 8.21709 143.517 9.90531 143.786C11.5935 144.056 13.32 143.95 14.9632 143.477C16.6064 143.004 18.1263 142.175 19.4159 141.049L55.4605 161.799L54.1171 140.168L20.0945 123.78C18.0659 121.731 15.3589 120.5 12.4864 120.321C9.61401 120.141 6.77574 121.025 4.50944 122.806C2.24314 124.586 0.706271 127.139 0.190067 129.981C-0.326136 132.823 0.214184 135.756 1.70864 138.225Z" fill="#FFB8B8"/>
<path d="M106.061 221.347C95.3693 236.367 95.7518 261.497 98.7348 289H149.287L151.485 283.853L154.416 289H202.037C202.037 289 198.374 219.141 191.78 216.935C185.186 214.729 106.061 221.347 106.061 221.347Z" fill="#2F2E41"/>
<path d="M149.287 64.4162C163.449 64.4162 174.93 52.8931 174.93 38.6787C174.93 24.4642 163.449 12.9412 149.287 12.9412C135.125 12.9412 123.645 24.4642 123.645 38.6787C123.645 52.8931 135.125 64.4162 149.287 64.4162Z" fill="#FFB8B8"/>
<path d="M167.82 71.0938L172.835 80.7405L207.519 96.2593L198.402 184.815L194.565 193.985L196.638 201.949L191.639 207.826C196.657 212.383 197.294 217.153 194.565 222.087L178.593 225.759C178.593 225.759 89.7851 233.685 97.2695 219.876C105.447 204.788 107.53 160.228 89.4766 136.416C74.1499 116.2 85.9168 89.9679 85.9168 89.9679L122.272 79.0628L135.644 71.0938L167.82 71.0938Z" fill="#3F3D56"/>
<path d="M160.671 0.977313C160.792 0.721414 160.986 0.507507 161.228 0.363062C161.471 0.218617 161.751 0.150227 162.032 0.16668C150.293 -0.538151 137.927 0.835203 128.106 7.32849C125.726 8.90161 123.483 10.778 120.894 11.9191C120.772 11.9743 120.666 12.0602 120.586 12.1685C120.507 12.2768 120.457 12.4039 120.441 12.5375C120.425 12.671 120.444 12.8063 120.495 12.9305C120.547 13.0546 120.63 13.1632 120.735 13.2458L121.02 13.4696C121.132 13.5579 121.218 13.6754 121.268 13.8094C121.318 13.9433 121.331 14.0885 121.305 14.2291C121.279 14.3698 121.215 14.5006 121.12 14.6073C121.025 14.714 120.902 14.7924 120.766 14.8342C120.624 14.8777 120.497 14.961 120.4 15.0745C120.304 15.1879 120.242 15.3267 120.221 15.4744C120.2 15.6222 120.222 15.7727 120.284 15.9084C120.346 16.0441 120.445 16.1592 120.57 16.2401L122.749 17.6539C122.859 17.7239 122.95 17.8204 123.012 17.9345C123.075 18.0487 123.109 18.177 123.11 18.3075C123.11 18.438 123.078 18.5665 123.017 18.6814C122.955 18.7963 122.865 18.8938 122.756 18.9649C122.572 19.0794 122.378 19.178 122.177 19.2599C122.052 19.307 121.941 19.3858 121.855 19.4884C121.769 19.5911 121.711 19.7143 121.686 19.8461C121.661 19.9779 121.671 20.1139 121.713 20.241C121.756 20.3681 121.831 20.482 121.93 20.5716C122.874 21.4149 123.598 22.4771 124.039 23.6656C124.765 25.5613 124.896 27.6258 125.018 29.6532C125.769 26.728 128.95 25.0061 131.954 24.8311C134.959 24.6561 137.889 25.6511 140.813 26.3664C147.181 27.9197 153.796 28.1751 160.264 27.1174C158.068 31.5418 159.921 36.8192 161.785 41.3946L167.82 38.7981C176.109 34.1018 170.336 53.9678 167.237 56.695C173.564 58.8967 190.125 34.4597 184.797 25.1901C182.026 20.3683 183.993 14.1492 178.545 9.57599C175.874 6.75445 170.543 8.00852 167.82 5.66349C166.749 4.74053 168.382 2.27126 166.91 1.73312C166.421 1.55439 160.752 0.79717 160.671 0.977313Z" fill="#2F2E41"/>
<path d="M117.237 81.5542C112.531 102.521 100.463 151.477 88.2193 161.715C87.4428 162.451 86.5118 163.003 85.4947 163.33C42.4577 173.853 28.6678 147.01 28.6678 147.01C28.6678 147.01 40.2012 141.368 40.4937 130.342L63.7527 137.585L84.028 91.7882L87.0116 88.9948L87.0283 88.9781L117.237 81.5542Z" fill="#3F3D56"/>
<path d="M208.999 275.175C210.231 273.986 211.189 272.54 211.804 270.939C212.419 269.339 212.678 267.622 212.561 265.91C212.444 264.198 211.954 262.533 211.126 261.032C210.299 259.531 209.153 258.23 207.771 257.221L219.836 217.312L199.135 223.476L190.851 260.429C189.317 262.873 188.728 265.797 189.198 268.647C189.668 271.497 191.163 274.075 193.4 275.892C195.637 277.71 198.46 278.641 201.335 278.509C204.21 278.376 206.937 277.19 208.999 275.175V275.175Z" fill="#FFB8B8"/>
<path d="M197.956 94.0266L207.519 96.2593C207.519 96.2593 247.043 173.445 237.519 188.152C227.994 202.86 216.326 251.551 216.326 251.551C216.326 251.551 199.069 248.108 192.475 239.283L204.55 181.534L192.095 133.001L197.956 94.0266Z" fill="#3F3D56"/>
<path d="M16.5393 208.645L16.8827 84.3326C16.8925 81.8165 17.8962 79.407 19.6737 77.6328C21.4512 75.8586 23.8573 74.8645 26.3641 74.8687L119.901 75.1289C122.408 75.1388 124.808 76.1462 126.576 77.9303C128.344 79.7144 129.334 82.1294 129.33 84.6455L128.987 208.958C128.977 211.474 127.973 213.884 126.196 215.658C124.418 217.432 122.012 218.426 119.505 218.422L25.9683 218.162C23.4615 218.152 21.0609 217.145 19.2933 215.361C17.5256 213.577 16.5352 211.162 16.5393 208.645V208.645Z" fill="#B2B2B2"/>
<path d="M23.8179 171.118L24.0387 91.1982C24.0478 88.8418 24.9878 86.5853 26.6525 84.9236C28.3172 83.262 30.5706 82.3311 32.9183 82.335L113.305 82.5587C115.653 82.5678 117.901 83.5113 119.557 85.1821C121.213 86.853 122.14 89.1147 122.136 91.4712L121.831 202.093C121.822 204.449 120.882 206.706 119.217 208.367C117.552 210.029 115.299 210.96 112.951 210.956L63.1526 210.817C52.6951 210.777 42.6808 206.574 35.3067 199.131C27.9325 191.689 23.8008 181.614 23.8179 171.118V171.118Z" fill="white"/>
<path d="M104.094 117.44H41.413C40.4156 117.44 39.459 117.043 38.7537 116.335C38.0484 115.627 37.6522 114.667 37.6522 113.665C37.6522 112.664 38.0484 111.704 38.7537 110.996C39.459 110.288 40.4156 109.891 41.413 109.891H104.094C105.092 109.891 106.048 110.288 106.754 110.996C107.459 111.704 107.855 112.664 107.855 113.665C107.855 114.667 107.459 115.627 106.754 116.335C106.048 117.043 105.092 117.44 104.094 117.44V117.44Z" fill="#006BD6"/>
<path d="M55.2029 100.034H41.413C40.4156 100.034 39.459 99.6365 38.7537 98.9285C38.0484 98.2206 37.6522 97.2605 37.6522 96.2593C37.6522 95.2582 38.0484 94.298 38.7537 93.5901C39.459 92.8822 40.4156 92.4845 41.413 92.4845H55.2029C56.2004 92.4845 57.157 92.8822 57.8623 93.5901C58.5676 94.298 58.9638 95.2582 58.9638 96.2593C58.9638 97.2605 58.5676 98.2206 57.8623 98.9285C57.157 99.6365 56.2004 100.034 55.2029 100.034Z" fill="#006BD6"/>
<path d="M104.094 134.846H41.413C40.4156 134.846 39.459 134.449 38.7537 133.741C38.0484 133.033 37.6522 132.073 37.6522 131.072C37.6522 130.07 38.0484 129.11 38.7537 128.402C39.459 127.694 40.4156 127.297 41.413 127.297H104.094C105.092 127.297 106.048 127.694 106.754 128.402C107.459 129.11 107.855 130.07 107.855 131.072C107.855 132.073 107.459 133.033 106.754 133.741C106.048 134.449 105.092 134.846 104.094 134.846Z" fill="#006BD6"/>
<path d="M104.094 152.253H41.413C40.4156 152.253 39.459 151.855 38.7537 151.147C38.0484 150.439 37.6522 149.479 37.6522 148.478C37.6522 147.477 38.0484 146.517 38.7537 145.809C39.459 145.101 40.4156 144.703 41.413 144.703H104.094C105.092 144.703 106.048 145.101 106.754 145.809C107.459 146.517 107.855 147.477 107.855 148.478C107.855 149.479 107.459 150.439 106.754 151.147C106.048 151.855 105.092 152.253 104.094 152.253V152.253Z" fill="#006BD6"/>
<path d="M99.0226 198.117C107.287 198.117 113.987 191.392 113.987 183.097C113.987 174.802 107.287 168.077 99.0226 168.077C90.7579 168.077 84.058 174.802 84.058 183.097C84.058 191.392 90.7579 198.117 99.0226 198.117Z" fill="#006BD6"/>
<path d="M96.9811 190.914C96.7227 190.914 96.4678 190.854 96.2367 190.738C96.0056 190.622 95.8046 190.453 95.6496 190.246L91.567 184.782C91.4356 184.607 91.3398 184.407 91.2853 184.194C91.2309 183.981 91.2187 183.76 91.2495 183.543C91.2803 183.325 91.3535 183.116 91.4649 182.927C91.5763 182.738 91.7238 182.573 91.8988 182.441C92.0738 182.31 92.273 182.214 92.4849 182.159C92.6968 182.105 92.9174 182.093 93.134 182.124C93.3505 182.155 93.5588 182.229 93.7469 182.341C93.9351 182.453 94.0993 182.601 94.2304 182.777L96.9013 186.352L103.761 176.023C103.882 175.84 104.038 175.683 104.22 175.56C104.401 175.437 104.606 175.352 104.82 175.308C105.035 175.265 105.256 175.264 105.471 175.307C105.686 175.349 105.89 175.434 106.073 175.556C106.255 175.678 106.411 175.835 106.533 176.017C106.655 176.2 106.739 176.405 106.782 176.621C106.825 176.836 106.824 177.058 106.781 177.274C106.738 177.49 106.653 177.695 106.531 177.877L98.3663 190.17C98.2186 190.393 98.02 190.576 97.787 190.705C97.554 190.835 97.2936 190.906 97.0274 190.914C97.012 190.914 96.9966 190.914 96.9811 190.914Z" fill="white"/>
<path d="M67.1124 45.9283C71.0357 45.9283 74.2163 42.736 74.2163 38.7981C74.2163 34.8602 71.0357 31.6678 67.1124 31.6678C63.189 31.6678 60.0085 34.8602 60.0085 38.7981C60.0085 42.736 63.189 45.9283 67.1124 45.9283Z" fill="#B2B2B2"/>
<path d="M41.2041 251.027C45.1275 251.027 48.308 247.835 48.308 243.897C48.308 239.959 45.1275 236.767 41.2041 236.767C37.2807 236.767 34.1002 239.959 34.1002 243.897C34.1002 247.835 37.2807 251.027 41.2041 251.027Z" fill="#B2B2B2"/>
<path d="M204.594 73.6103C208.517 73.6103 211.697 70.418 211.697 66.4801C211.697 62.5422 208.517 59.3499 204.594 59.3499C200.67 59.3499 197.49 62.5422 197.49 66.4801C197.49 70.418 200.67 73.6103 204.594 73.6103Z" fill="#B2B2B2"/>
</g>
<defs>
<clipPath id="clip0_22_44">
<rect width="239" height="289" fill="white"/>
</clipPath>
</defs>
</svg>